<svg xmlns="http://www.w3.org/2000/svg" version="1.1" xmlns:xlink="http://www.w3.org/1999/xlink" xmlns:svgjs="http://svgjs.dev/svgjs" width="1000" height="1000" viewBox="0 0 1000 1000"><rect width="1000" height="1000" fill="#ffffff"></rect><g transform="matrix(0.7,0,0,0.7,149.57575757575756,282.1265587044535)"><svg viewBox="0 0 396 247" data-background-color="#7fdbff" preserveAspectRatio="xMidYMid meet" height="623" width="1000" xmlns="http://www.w3.org/2000/svg" xmlns:xlink="http://www.w3.org/1999/xlink"><defs></defs><g id="tight-bounds" transform="matrix(1,0,0,1,0.2400000000000091,-0.09999999999999432)"><svg viewBox="0 0 395.52 247.2" height="247.2" width="395.52"><g><svg></svg></g><g><svg viewBox="0 0 395.52 247.2" height="247.2" width="395.52"><g transform="matrix(2.452, 0, 0, 2.452, 75.16, 1)"><svg xmlns="http://www.w3.org/2000/svg" xmlns:xlink="http://www.w3.org/1999/xlink" version="1.1" x="0" y="0" viewBox="0 0 100 100" enable-background="new 0 0 100 100" xml:space="preserve" height="100" width="100" class="icon-none" data-fill-palette-color="accent" id="none"><path d="M7.173 28.125c1.548-3.025 3.372-4.498 5.581-4.498 1.914 0 3.424 0.555 4.527 1.629 1.108-1.074 2.621-1.629 4.529-1.629 2.202 0 4.028 1.473 5.579 4.498 0.3 0.582 0.069 1.293-0.513 1.588-0.17 0.09-0.355 0.134-0.542 0.134-0.427 0-0.839-0.237-1.052-0.644-1.645-3.213-3.023-3.213-3.473-3.213-1.741 0-2.819 0.546-3.495 1.763-0.016 0.031-0.045 0.049-0.059 0.071-0.047 0.067-0.098 0.125-0.159 0.184-0.054 0.054-0.109 0.103-0.174 0.148-0.027 0.013-0.042 0.044-0.069 0.058-0.043 0.027-0.087 0.027-0.134 0.045-0.069 0.031-0.139 0.054-0.217 0.067-0.078 0.018-0.152 0.022-0.235 0.022-0.072-0.004-0.134-0.009-0.208-0.022-0.083-0.013-0.157-0.04-0.235-0.072-0.042-0.018-0.083-0.018-0.121-0.04-0.022-0.014-0.042-0.041-0.065-0.054-0.069-0.049-0.123-0.099-0.186-0.157-0.054-0.058-0.105-0.116-0.15-0.179-0.016-0.026-0.042-0.04-0.056-0.071-0.676-1.217-1.752-1.763-3.493-1.763-0.454 0-1.835 0-3.473 3.208-0.212 0.412-0.625 0.649-1.054 0.649-0.183 0-0.369-0.044-0.542-0.129C7.104 29.417 6.873 28.706 7.173 28.125zM37.791 29.27c-2.49 0-4.56 1.678-6.328 5.133-0.3 0.582-0.069 1.293 0.513 1.589 0.17 0.094 0.355 0.13 0.542 0.13 0.427 0 0.839-0.233 1.052-0.64 1.967-3.844 3.663-3.844 4.222-3.844 2.075 0 3.424 0.685 4.236 2.152 0.018 0.027 0.044 0.045 0.058 0.072 0.044 0.067 0.094 0.116 0.15 0.174 0.06 0.058 0.119 0.112 0.19 0.161 0.027 0.018 0.041 0.041 0.063 0.054 0.038 0.018 0.081 0.018 0.116 0.036 0.078 0.031 0.157 0.063 0.242 0.076 0.071 0.014 0.141 0.022 0.217 0.022 0.074 0 0.146-0.009 0.222-0.022 0.083-0.013 0.157-0.044 0.235-0.076 0.036-0.014 0.079-0.018 0.114-0.036 0.029-0.013 0.042-0.04 0.065-0.058 0.069-0.045 0.13-0.099 0.19-0.157 0.054-0.058 0.105-0.107 0.148-0.174 0.018-0.027 0.047-0.045 0.061-0.072 0.816-1.468 2.162-2.152 4.24-2.152 0.553 0 2.249 0 4.215 3.844 0.215 0.407 0.627 0.64 1.055 0.64 0.186 0 0.371-0.036 0.539-0.125 0.584-0.3 0.816-1.012 0.515-1.593-1.766-3.455-3.833-5.133-6.324-5.133-2.251 0-4.01 0.676-5.274 1.982C41.801 29.946 40.042 29.27 37.791 29.27zM24.316 19.917c0.172 0.089 0.355 0.13 0.535 0.13 0.432 0 0.848-0.237 1.056-0.645 1.125-2.207 2.005-2.207 2.293-2.207 1.162 0 1.871 0.354 2.31 1.146 0.016 0.027 0.045 0.04 0.056 0.067 0.047 0.067 0.103 0.125 0.161 0.184 0.059 0.054 0.107 0.107 0.172 0.147 0.027 0.018 0.042 0.045 0.069 0.063 0.042 0.022 0.087 0.022 0.128 0.04 0.074 0.031 0.15 0.054 0.228 0.067 0.069 0.018 0.139 0.022 0.206 0.022 0.085 0 0.163-0.004 0.246-0.022 0.069-0.014 0.134-0.036 0.204-0.067 0.047-0.013 0.092-0.018 0.139-0.04 0.027-0.018 0.045-0.045 0.076-0.063 0.058-0.04 0.114-0.089 0.167-0.143 0.056-0.058 0.112-0.116 0.157-0.184 0.02-0.031 0.042-0.044 0.061-0.071 0.438-0.792 1.152-1.146 2.309-1.146 0.293 0 1.166 0 2.298 2.207 0.208 0.407 0.625 0.645 1.052 0.645 0.181 0 0.367-0.041 0.542-0.13 0.577-0.3 0.808-1.012 0.512-1.593-1.206-2.35-2.647-3.495-4.404-3.495-1.385 0-2.488 0.403-3.343 1.132-0.851-0.729-1.96-1.132-3.346-1.132-1.759 0-3.195 1.146-4.401 3.495C23.503 18.905 23.734 19.621 24.316 19.917zM74.064 24.866c-3.748 0-6.794-3.048-6.794-6.789 0-3.746 3.046-6.789 6.794-6.789 3.741 0 6.789 3.043 6.789 6.789C80.854 21.818 77.806 24.866 74.064 24.866zM78.488 18.077c0-2.439-1.987-4.422-4.424-4.422-2.441 0-4.429 1.983-4.429 4.422s1.987 4.426 4.429 4.426C76.501 22.503 78.488 20.516 78.488 18.077zM74.064 10.286c0.65 0 1.182-0.533 1.182-1.182V6.186C75.246 5.528 74.715 5 74.064 5c-0.658 0-1.184 0.528-1.184 1.186v2.918C72.881 9.753 73.406 10.286 74.064 10.286zM68.553 10.894c0.222 0.38 0.617 0.591 1.024 0.591 0.199 0 0.401-0.049 0.591-0.157 0.564-0.327 0.759-1.052 0.43-1.616l-1.459-2.524c-0.329-0.568-1.049-0.761-1.61-0.434-0.571 0.327-0.766 1.052-0.437 1.616L68.553 10.894zM63.171 13.154l2.526 1.459c0.188 0.112 0.394 0.161 0.591 0.161 0.407 0 0.808-0.21 1.025-0.591 0.328-0.568 0.134-1.289-0.435-1.616l-2.526-1.459c-0.563-0.327-1.289-0.134-1.618 0.43C62.408 12.107 62.603 12.832 63.171 13.154zM62.169 19.263h2.92c0.655 0 1.182-0.533 1.182-1.186s-0.526-1.182-1.182-1.182h-2.92c-0.651 0-1.185 0.528-1.185 1.182S61.518 19.263 62.169 19.263zM67.313 21.971c-0.327-0.564-1.057-0.756-1.616-0.43l-2.521 1.463c-0.571 0.322-0.764 1.047-0.437 1.611 0.224 0.38 0.62 0.591 1.027 0.591 0.196 0 0.407-0.049 0.591-0.161l2.521-1.455C67.447 23.264 67.642 22.539 67.313 21.971zM67.528 29.4c0.183 0.107 0.387 0.161 0.588 0.161 0.407 0 0.806-0.21 1.022-0.591l1.459-2.524c0.329-0.569 0.135-1.293-0.43-1.62-0.563-0.322-1.288-0.134-1.615 0.434l-1.461 2.524C66.763 28.353 66.957 29.073 67.528 29.4zM72.881 27.055v2.918c0 0.653 0.53 1.182 1.184 1.182s1.182-0.528 1.182-1.182v-2.918c0-0.658-0.528-1.182-1.182-1.182S72.881 26.397 72.881 27.055zM78.987 28.966c0.222 0.38 0.617 0.595 1.027 0.595 0.196 0 0.4-0.054 0.588-0.161 0.566-0.327 0.759-1.052 0.432-1.616l-1.459-2.524c-0.328-0.568-1.049-0.761-1.613-0.434-0.568 0.327-0.763 1.051-0.434 1.615L78.987 28.966zM83.771 25.045c0.186 0.112 0.389 0.161 0.593 0.161 0.407 0 0.804-0.21 1.021-0.591 0.329-0.564 0.134-1.289-0.43-1.616l-2.526-1.459c-0.563-0.327-1.289-0.134-1.618 0.43-0.326 0.568-0.132 1.293 0.437 1.62L83.771 25.045zM81.855 18.077c0 0.653 0.526 1.182 1.184 1.182h2.918c0.651 0 1.185-0.533 1.185-1.182 0-0.658-0.533-1.186-1.185-1.186h-2.918C82.382 16.891 81.855 17.419 81.855 18.077zM80.811 14.184c0.224 0.38 0.62 0.591 1.025 0.591 0.201 0 0.409-0.054 0.593-0.161l2.526-1.459c0.563-0.327 0.759-1.052 0.43-1.616-0.327-0.568-1.052-0.761-1.613-0.434l-2.524 1.459C80.679 12.895 80.484 13.615 80.811 14.184zM77.962 11.328c0.184 0.107 0.388 0.157 0.591 0.157 0.407 0 0.804-0.21 1.025-0.591l1.456-2.524c0.327-0.568 0.135-1.289-0.434-1.616S79.31 6.62 78.982 7.188l-1.454 2.524C77.199 10.276 77.394 11.001 77.962 11.328zM94.139 69.423C94.139 83.763 74.751 95 50 95S5.861 83.763 5.861 69.423c0-14.344 19.388-25.577 44.139-25.577S94.139 55.079 94.139 69.423zM89.408 69.423c0-11.3-18.047-20.846-39.408-20.846-21.366 0-39.408 9.546-39.408 20.846C10.592 80.724 28.634 90.27 50 90.27 71.361 90.27 89.408 80.724 89.408 69.423zM39.232 58.799h30.58c0.651 0 1.182-0.533 1.182-1.182 0-0.653-0.53-1.187-1.182-1.187h-30.58c-0.656 0-1.182 0.533-1.182 1.187C38.051 58.266 38.577 58.799 39.232 58.799zM52.273 65.713c0-0.657-0.532-1.186-1.182-1.186H20.509c-0.655 0-1.184 0.528-1.184 1.186 0 0.653 0.528 1.182 1.184 1.182h30.583C51.741 66.895 52.273 66.366 52.273 65.713zM77.459 72.623H46.878c-0.653 0-1.184 0.523-1.184 1.177 0 0.658 0.53 1.182 1.184 1.182h30.581c0.655 0 1.182-0.523 1.182-1.182C78.641 73.146 78.114 72.623 77.459 72.623zM55.59 80.715H30.34c-0.656 0-1.182 0.523-1.182 1.182 0 0.653 0.526 1.181 1.182 1.181h25.25c0.651 0 1.184-0.527 1.184-1.181C56.773 81.238 56.241 80.715 55.59 80.715z" fill="#000000" data-fill-palette-color="accent"></path></svg></g><rect width="348.05760000000004" height="109.58727736133638" fill="#7fdbff" y="68.80636131933181" x="23.731199999999973" data-fill-palette-color="quaternary"></rect><g transform="matrix(1,0,0,1,39.55199999999999,80.68434488455746)"><svg viewBox="0 0 316.416 85.83131023088507" height="85.83131023088507" width="316.416"><g><svg viewBox="0 0 316.416 85.83131023088507" height="85.83131023088507" width="316.416"><g><svg viewBox="0 0 316.416 85.83131023088507" height="85.83131023088507" width="316.416"><g><svg viewBox="0 0 316.416 85.83131023088507" height="85.83131023088507" width="316.416"><g><svg viewBox="0 0 316.416 50.31423594615993" height="50.31423594615993" width="316.416"><g transform="matrix(1,0,0,1,0,0)"><svg width="316.416" viewBox="-8.010000228881836 -52.04999923706055 374 58.84000015258789" height="50.31423594615993" data-palette-color="#0074d9"><g class="undefined-text-0" data-fill-palette-color="primary" id="text-0"><path d="M47.66-46.53L47.66-46.53Q47.27-46.29 46.83-46.24 46.39-46.19 45.92-46.12 45.46-46.04 45.07-45.9 44.68-45.75 44.48-45.36L44.48-45.36Q43.99-45.85 43.41-46.19 42.82-46.53 42.24-46.92L42.24-46.92Q41.75-46.78 41.26-46.53 40.77-46.29 40.28-46.29L40.28-46.29Q39.94-46.29 39.6-46.53L39.6-46.53Q39.21-46.24 38.7-46.07 38.18-45.9 37.62-45.75 37.06-45.61 36.6-45.36 36.13-45.12 35.94-44.63L35.94-44.63Q35.84-44.87 35.47-44.78 35.11-44.68 35.06-45.02L35.06-45.02Q33.5-44.48 31.88-44.09 30.27-43.7 28.66-43.26 27.05-42.82 25.49-42.29 23.93-41.75 22.46-40.97L22.46-40.97Q22.41-40.92 22.41-40.82L22.41-40.82Q22.41-40.33 22.56-39.89 22.71-39.45 22.8-39.06L22.8-39.06Q21.92-36.08 21.63-33.01 21.34-29.93 20.85-26.95L20.85-26.95 20.85-26.76Q20.85-26.51 21.04-26.39 21.24-26.27 21.24-25.98L21.24-25.98 21.19-25.88Q20.95-25.73 20.85-25.46 20.75-25.2 20.75-24.9L20.75-24.9Q20.75-24.71 20.85-24.32L20.85-24.32Q20.02-21.53 19.75-18.65 19.48-15.77 19.09-12.89L19.09-12.89 18.65-9.67Q18.55-9.38 18.48-9.11 18.41-8.84 18.41-8.54L18.41-8.54Q18.41-6.98 18.63-5.49 18.85-4 18.75-2.44L18.75-2.44Q19.19-1.76 19.19-1.12L19.19-1.12Q19.19-0.88 19.17-0.63 19.14-0.39 19.09-0.15L19.09-0.15Q19.73 0.49 20.58 0.76 21.44 1.03 22.12 1.61L22.12 1.61 22.12 1.81Q22.12 2.29 21.97 2.76 21.83 3.22 21.73 3.71L21.73 3.71Q21.63 4.1 21.51 4.83 21.39 5.57 21.19 5.81L21.19 5.81Q20.95 6.15 20.48 6.42 20.02 6.69 19.58 6.69L19.58 6.69Q19.43 6.69 19.17 6.54 18.9 6.4 18.75 6.3L18.75 6.3Q18.51 6.3 18.12 6.54 17.72 6.79 17.33 6.79L17.33 6.79Q17.14 6.79 16.99 6.76 16.85 6.74 16.65 6.64L16.65 6.64Q16.46 6.15 16.09 5.79 15.72 5.42 15.23 5.08L15.23 5.08Q15.28 4.39 14.99 4.05 14.7 3.71 14.4 3.17L14.4 3.17Q14.31 2.49 14.23 1.61 14.16 0.73 13.48 0.34L13.48 0.34Q13.72 0 13.72-0.59L13.72-0.59Q13.72-0.83 13.65-1.12 13.57-1.42 13.33-1.56L13.33-1.56 13.33-1.66Q13.28-1.9 13.5-2.03 13.72-2.15 13.72-2.39L13.72-2.39 13.72-2.59Q13.38-4.15 13.38-5.86L13.38-5.86Q13.38-7.47 13.48-9.06 13.57-10.64 13.48-12.26L13.48-12.26Q13.77-12.5 13.94-13.04 14.11-13.57 14.21-14.21 14.31-14.84 14.33-15.45 14.36-16.06 14.4-16.46L14.4-16.46Q14.65-19.24 15.19-21.95 15.72-24.66 15.82-27.49L15.82-27.49Q16.06-27.88 16.11-28.52 16.16-29.15 16.16-29.86 16.16-30.57 16.26-31.25 16.36-31.93 16.65-32.42L16.65-32.42Q16.65-33.79 16.89-35.18 17.14-36.57 17.14-37.99L17.14-37.99Q17.14-38.67 16.99-39.4L16.99-39.4Q16.5-39.6 16.11-39.6L16.11-39.6Q15.58-39.6 15.01-39.38 14.45-39.16 14.21-38.72L14.21-38.72Q13.13-38.67 12.11-38.38 11.08-38.09 10.06-38.09L10.06-38.09 9.57-38.09Q9.38-38.09 9.13-38.13L9.13-38.13Q8.79-37.99 8.42-37.89 8.06-37.79 8.11-37.3L8.11-37.3Q6.59-37.16 5.15-36.67 3.71-36.18 2.29-35.62 0.88-35.06-0.56-34.57-2-34.08-3.52-33.94L-3.52-33.94Q-4.05-33.69-4.2-32.91L-4.2-32.91Q-5.27-33.01-6.01-33.45-6.74-33.89-7.71-34.28L-7.71-34.28Q-8.01-35.3-8.01-36.23L-8.01-36.23Q-8.01-37.45-7.52-38.57-7.03-39.7-5.96-40.23L-5.96-40.23Q-5.71-40.19-5.52-40.16-5.32-40.14-5.08-40.14L-5.08-40.14Q-4.3-40.14-3.52-40.43-2.73-40.72-1.9-40.72L-1.9-40.72Q-1.66-40.72-1.37-40.58L-1.37-40.58Q-1.03-40.77-0.51-40.89 0-41.02 0.46-41.14 0.93-41.26 1.32-41.5 1.71-41.75 1.81-42.19L1.81-42.19Q2.05-41.99 2.34-41.94 2.64-41.89 2.93-41.89L2.93-41.89Q3.56-41.89 4.25-42.14 4.93-42.38 5.32-42.92L5.32-42.92Q5.66-42.53 6.3-42.53L6.3-42.53Q6.98-42.53 7.64-42.9 8.3-43.26 8.94-43.26L8.94-43.26Q9.42-43.26 9.67-42.92L9.67-42.92Q10.21-43.36 10.94-43.6 11.67-43.85 12.43-44.04 13.18-44.24 13.84-44.48 14.5-44.73 14.89-45.17L14.89-45.17Q15.14-45.12 15.67-45.12L15.67-45.12Q16.5-45.12 17.26-45.34 18.02-45.56 18.8-45.75L18.8-45.75 19.82-45.85Q20.21-45.9 20.53-46.09 20.85-46.29 21.19-46.44 21.53-46.58 21.9-46.68 22.27-46.78 22.8-46.73L22.8-46.73Q23.97-47.36 25.29-47.71 26.61-48.05 27.98-48.32 29.35-48.58 30.66-48.95 31.98-49.32 33.15-50.05L33.15-50.05 33.3-50.05Q34.28-50.05 35.23-50.39 36.18-50.73 37.01-51.32L37.01-51.32Q37.16-51.27 37.3-51.27L37.3-51.27 37.65-51.27Q39.01-51.27 40.31-51.66 41.6-52.05 43.02-52.05L43.02-52.05Q43.85-52.05 44.34-51.83 44.82-51.61 45.21-51.29 45.61-50.98 46.04-50.68 46.48-50.39 47.17-50.24L47.17-50.24Q47.61-49.41 47.61-48.46 47.61-47.51 47.66-46.53ZM69.09-3.56L69.09-3.56Q68.94-2.88 68.48-2.47 68.02-2.05 67.38-1.81 66.75-1.56 66.09-1.49 65.43-1.42 64.89-1.42L64.89-1.42Q64.65-1.42 64.43-1.44 64.21-1.46 63.96-1.46L63.96-1.46Q63.72-1.46 63.72-1.22 63.72-0.98 63.47-0.88L63.47-0.88Q63.23-0.98 62.99-1.03 62.74-1.07 62.5-1.07L62.5-1.07Q62.16-1.07 61.84-1.03 61.52-0.98 61.23-0.98L61.23-0.98Q60.84-0.98 60.67-1.07 60.5-1.17 60.37-1.29 60.25-1.42 60.13-1.56 60.01-1.71 59.76-1.81L59.76-1.81Q59.42-1.95 59.2-1.86 58.98-1.76 58.54-2.15L58.54-2.15Q57.96-2.64 57.54-3.34 57.13-4.05 56.74-4.83 56.35-5.62 55.91-6.4 55.47-7.18 54.88-7.76L54.88-7.76 54.49-7.76Q53.61-7.76 53.27-7.03L53.27-7.03Q53.02-7.18 52.78-7.4 52.54-7.62 52.24-7.76L52.24-7.76Q51.12-7.42 49.9-7.18 48.68-6.93 47.46-6.93L47.46-6.93 46.77-6.93Q46.48-6.93 46.14-7.03L46.14-7.03Q45.65-6.84 45.26-6.57 44.87-6.3 44.38-6.3L44.38-6.3Q44.09-6.3 43.7-6.49L43.7-6.49Q43.41-6.49 43.43-6.25 43.45-6.01 43.11-6.01L43.11-6.01 42.67-6.01Q41.99-6.01 41.33-5.96 40.67-5.91 39.99-5.91L39.99-5.91Q39.06-5.91 38.08-6.15L38.08-6.15Q37.84-6.01 37.55-6.01L37.55-6.01Q37.35-5.91 37.25-5.69 37.16-5.47 37.06-5.3 36.96-5.13 36.79-5 36.62-4.88 36.33-4.93L36.33-4.93Q36.23-4.35 35.84-4 35.45-3.66 35.45-2.98L35.45-2.98Q34.91-2.69 34.57-2.25 34.23-1.81 33.88-1.32 33.54-0.83 33.18-0.39 32.81 0.05 32.27 0.29L32.27 0.29Q32.03 0.59 32.13 1.22L32.13 1.22Q31.59 1.66 30.81 2 30.03 2.34 29.34 2.34L29.34 2.34Q27.93 2.34 27.39 0.83L27.39 0.83Q27.39 0.34 27.46-0.22 27.54-0.78 27.68-1.29 27.83-1.81 28.12-2.22 28.42-2.64 28.95-2.83L28.95-2.83Q28.95-3.27 28.66-3.44 28.37-3.61 28.42-4.05L28.42-4.05Q29.73-4.69 30.71-5.71 31.69-6.74 32.49-7.89 33.3-9.03 34.13-10.21 34.96-11.38 35.98-12.3L35.98-12.3 35.98-13.33Q37.45-14.89 37.89-16.85L37.89-16.85Q38.43-16.94 38.6-17.33 38.77-17.72 38.77-18.26L38.77-18.26Q39.01-18.26 39.08-18.48 39.16-18.7 39.5-18.6L39.5-18.6Q39.94-19.78 40.48-20.75 41.01-21.73 41.55-22.73 42.09-23.73 42.5-24.8 42.92-25.88 43.11-27.2L43.11-27.2Q43.8-27.25 43.87-27.86 43.94-28.47 44.04-28.96L44.04-28.96Q44.77-29.64 45.14-30.57 45.51-31.49 45.8-32.5 46.09-33.5 46.46-34.5 46.82-35.5 47.51-36.28L47.51-36.28 47.51-36.43Q47.51-36.67 47.31-36.74 47.12-36.82 47.12-37.06L47.12-37.06Q47.17-37.11 47.17-37.16L47.17-37.16Q47.75-37.4 48.04-37.96 48.34-38.53 48.92-38.77L48.92-38.77Q49.95-37.94 50.73-37.77 51.51-37.6 52.78-37.5L52.78-37.5Q53.42-36.82 53.49-35.86 53.56-34.91 53.81-33.98L53.81-33.98Q54.2-32.42 54.66-30.93 55.12-29.44 55.37-27.88L55.37-27.88Q55.52-26.95 55.91-26.12 56.3-25.29 56.44-24.41L56.44-24.41Q56.54-23.73 56.44-22.88 56.35-22.02 56.64-21.39L56.64-21.39 56.98-20.61Q57.22-20.07 57.39-19.48 57.57-18.9 57.71-18.31L57.71-18.31Q58.1-16.85 58.42-15.16 58.74-13.48 59.42-12.11L59.42-12.11Q59.67-11.62 60.18-11.43 60.69-11.23 61.33-11.16 61.96-11.08 62.57-11.11 63.18-11.13 63.62-11.13L63.62-11.13 64.11-11.13Q64.4-11.13 64.69-11.04L64.69-11.04Q64.89-10.64 64.89-10.35L64.89-10.35Q64.89-9.77 64.5-9.42 64.11-9.08 64.11-8.64L64.11-8.64Q64.11-8.4 64.3-8.11L64.3-8.11Q64.11-8.15 63.72-8.15L63.72-8.15Q62.6-8.15 61.52-7.76L61.52-7.76Q61.91-6.93 62.57-6.37 63.23-5.81 63.96-5.32L63.96-5.32Q64.45-5.71 64.99-5.71L64.99-5.71Q65.57-5.71 66.09-5.44 66.6-5.18 67.19-5.18L67.19-5.18Q67.62-5.18 67.82-5.32L67.82-5.32Q68.21-4.88 68.45-4.42 68.7-3.96 69.09-3.56ZM53.81-11.38L53.81-11.38Q53.71-12.21 53.49-12.57 53.27-12.94 53.12-13.48L53.12-13.48Q52.93-14.16 52.85-14.94 52.78-15.72 52.63-16.46L52.63-16.46Q52.29-18.12 51.88-19.78 51.46-21.44 50.83-23L50.83-23Q51.02-23.29 51.02-23.54L51.02-23.54 51.02-23.68Q50.58-24.17 50.39-24.88 50.19-25.59 50.02-26.29 49.85-27 49.58-27.61 49.31-28.22 48.73-28.61L48.73-28.61Q48.58-28.32 48.58-27.93L48.58-27.93Q48.58-27.59 48.65-27.29 48.73-27 48.73-26.66L48.73-26.66Q48.24-26.42 48.02-25.9 47.8-25.39 47.31-25.1L47.31-25.1Q46.92-23.54 46.19-22.14 45.46-20.75 44.65-19.38 43.85-18.02 43.11-16.63 42.38-15.23 41.94-13.72L41.94-13.72Q41.31-13.28 41.09-12.6 40.87-11.91 40.87-11.23L40.87-11.23Q41.31-10.99 41.87-10.96 42.43-10.94 42.97-10.94 43.5-10.94 43.99-10.84 44.48-10.74 44.87-10.35L44.87-10.35Q45.51-10.55 46.26-10.62 47.02-10.69 47.51-11.04L47.51-11.04Q48.48-10.69 49.61-10.69L49.61-10.69Q50.19-10.69 50.75-10.79 51.32-10.89 51.85-11.04L51.85-11.04Q52.29-10.94 52.54-10.72 52.78-10.5 53.27-10.55L53.27-10.55Q53.51-10.74 53.56-10.96 53.61-11.18 53.81-11.38ZM95.31-12.55L95.31-12.55Q95.31-12.01 94.92-11.74 94.53-11.47 94.53-11.04L94.53-11.04Q94.53-10.84 94.72-10.55L94.72-10.55Q94.04-10.55 93.79-10.11 93.55-9.67 93.31-9.13L93.31-9.13 92.67-9.13Q92.43-9.13 92.28-9.03 92.13-8.94 92.01-8.76 91.89-8.59 91.69-8.25L91.69-8.25Q90.77-8.06 89.91-7.64 89.06-7.23 88.25-6.76 87.45-6.3 86.62-5.83 85.79-5.37 84.91-5.08L84.91-5.08Q84.47-4.35 83.64-3.91L83.64-3.91 83.49-3.91Q83.25-3.86 83.08-3.98 82.91-4.1 82.66-4.1L82.66-4.1Q82.51-4.1 82.47-4.05L82.47-4.05Q81-3.08 79.19-3.08L79.19-3.08Q78.71-3.08 78.27-3.15 77.83-3.22 77.34-3.22L77.34-3.22Q77.19-3.22 77.14-3.13L77.14-3.13 77.05-2.93Q77-2.83 76.92-2.73 76.85-2.64 76.56-2.64L76.56-2.64Q76.02-2.64 75.48-2.78 74.95-2.93 74.36-2.83L74.36-2.83Q73.24-3.47 72.6-4.05 71.97-4.64 71.43-5.81L71.43-5.81Q71.19-6.35 70.77-6.84 70.36-7.32 70.16-7.91L70.16-7.91Q70.11-8.11 70.01-8.62 69.92-9.13 69.82-9.72 69.72-10.3 69.65-10.84 69.58-11.38 69.58-11.57L69.58-11.57Q69.58-12.16 69.65-12.72 69.72-13.28 69.82-13.87L69.82-13.87Q70.11-15.72 70.23-17.6 70.36-19.48 71.04-21.24L71.04-21.24Q70.94-21.78 70.94-22.27L70.94-22.27 70.94-23.34Q70.94-24.27 70.7-24.9L70.7-24.9Q71.09-25.54 71.09-26.32L71.09-26.32Q71.09-27.2 70.36-27.34L70.36-27.34 70.36-27.49Q70.36-28.52 69.67-29.1L69.67-29.1Q69.67-30.81 70.53-31.67 71.38-32.52 72.8-33.15L72.8-33.15Q72.99-33.45 72.94-33.64L72.94-33.64Q73.29-33.54 73.58-33.45 73.87-33.35 74.16-33.35L74.16-33.35Q74.65-33.35 75.04-33.5L75.04-33.5Q75.19-32.91 75.8-32.79 76.41-32.67 76.8-32.47L76.8-32.47 76.8-31.84Q76.8-30.32 77.53-28.96L77.53-28.96Q77.34-28.56 77.29-28.13 77.24-27.69 77.24-27.29L77.24-27.29Q77.24-26.71 77.29-26.12 77.34-25.54 77.34-25L77.34-25Q77.34-24.41 77.22-23.83 77.09-23.24 76.66-22.8L76.66-22.8Q76.61-22.17 76.58-21.36 76.56-20.56 76.48-19.73 76.41-18.9 76.22-18.12 76.02-17.33 75.63-16.85L75.63-16.85Q75.58-16.11 75.56-15.36 75.53-14.6 75.53-13.92L75.53-13.92Q75.53-12.84 75.65-11.38 75.78-9.91 76.31-8.94L76.31-8.94Q76.56-8.54 77.27-8.35 77.97-8.15 78.41-8.15L78.41-8.15Q78.95-8.15 79.51-8.33 80.07-8.5 80.32-8.94L80.32-8.94Q80.61-8.89 80.71-8.64 80.81-8.4 81.05-8.25L81.05-8.25Q83.83-9.42 86.62-10.5 89.4-11.57 92.08-12.99L92.08-12.99Q92.48-12.79 92.91-12.79L92.91-12.79Q93.4-12.79 93.89-12.89 94.38-12.99 94.87-12.99L94.87-12.99 95.21-12.99Q95.31-12.7 95.31-12.55ZM125.87-31.05L125.87-31.05 125.87-30.86Q125.53-30.76 125.53-30.37L125.53-30.37Q124.99-30.13 124.41-30 123.82-29.88 123.28-29.64L123.28-29.64Q122.75-29.69 122.18-29.71 121.62-29.74 121.09-29.74L121.09-29.74Q119.62-29.74 118.16-29.64 116.69-29.54 115.23-29.64L115.23-29.64Q114.54-29.25 113.74-29.03 112.93-28.81 112.2-28.81L112.2-28.81Q111.61-28.81 111.17-28.96L111.17-28.96Q110-28.37 108.61-27.98 107.22-27.59 105.8-27.22 104.39-26.86 103.09-26.39 101.8-25.93 100.82-25.1L100.82-25.1Q100.72-24.41 100.68-23.75 100.63-23.1 100.63-22.46L100.63-22.46Q100.63-21.78 100.7-21.19 100.77-20.61 101.02-20.02L101.02-20.02Q101.26-19.92 101.58-19.87 101.9-19.82 102.14-19.82L102.14-19.82Q102.39-19.82 102.63-19.9 102.87-19.97 102.97-20.21L102.97-20.21Q103.7-20.31 104.44-20.29 105.17-20.26 105.9-20.26L105.9-20.26Q106.63-20.26 107.34-20.31 108.05-20.36 108.73-20.56L108.73-20.56Q109.51-20.75 110.27-20.8 111.03-20.85 111.76-20.9 112.49-20.95 113.27-21.07 114.06-21.19 114.89-21.58L114.89-21.58Q115.52-21.34 116.18-21.34 116.84-21.34 117.47-21.24L117.47-21.24Q117.81-21 118.03-20.7 118.25-20.41 118.25-20.02L118.25-20.02Q118.25-19.34 117.77-18.65 117.28-17.97 116.98-17.38L116.98-17.38 116.45-17.38Q115.28-17.38 114.18-17.07 113.08-16.75 111.98-16.33 110.88-15.92 109.78-15.6 108.68-15.28 107.51-15.28L107.51-15.28Q107.32-15.28 107.29-15.06 107.27-14.84 107.17-14.75L107.17-14.75Q106.93-14.79 106.44-14.79L106.44-14.79Q105.31-14.79 104.29-14.55 103.26-14.31 102.19-14.31L102.19-14.31Q101.9-14.31 101.6-14.33 101.31-14.36 101.02-14.4L101.02-14.4Q100.77-14.01 100.38-13.89 99.99-13.77 99.65-13.48L99.65-13.48Q99.5-13.04 99.48-12.4 99.46-11.77 99.43-11.11 99.41-10.45 99.31-9.86 99.21-9.28 98.92-8.94L98.92-8.94Q98.97-8.69 99.31-8.76 99.65-8.84 99.65-8.45L99.65-8.45Q99.65-8.01 99.55-7.52 99.46-7.03 99.46-6.54L99.46-6.54Q99.46-5.62 99.68-4.52 99.89-3.42 100.36-2.49 100.82-1.56 101.6-0.95 102.39-0.34 103.56-0.34L103.56-0.34Q104.34-0.34 105.02-0.63 105.71-0.93 106.14-1.61L106.14-1.61 106.39-1.66Q106.58-1.66 106.76-1.61 106.93-1.56 107.12-1.56L107.12-1.56Q107.41-1.56 107.88-1.93 108.34-2.29 108.9-2.78 109.47-3.27 110.05-3.74 110.64-4.2 111.17-4.39L111.17-4.39Q111.52-5.08 111.83-5.76 112.15-6.45 112.79-6.84L112.79-6.84 112.79-8.25Q113.27-8.79 113.84-9.23 114.4-9.67 114.69-10.35L114.69-10.35Q114.93-10.25 115.15-10.21 115.37-10.16 115.62-10.16L115.62-10.16Q115.86-10.16 116.13-10.21 116.4-10.25 116.64-10.35L116.64-10.35Q117.03-9.81 117.25-9.16 117.47-8.5 117.81-7.91L117.81-7.91Q117.38-7.03 116.79-5.81 116.2-4.59 115.52-3.37 114.84-2.15 114.08-1.05 113.32 0.05 112.59 0.63L112.59 0.63Q112.44 0.78 111.96 0.98L111.96 0.98Q111.42 1.37 110.98 1.73 110.54 2.1 110.15 2.59L110.15 2.59Q108.73 3.03 107.44 3.76 106.14 4.49 104.88 5.18L104.88 5.18Q104.29 5.03 103.61 5.03L103.61 5.03Q103.02 5.03 102.43 5.1 101.85 5.18 101.16 5.18L101.16 5.18Q100.97 4.93 100.6 4.86 100.24 4.79 100.33 4.35L100.33 4.35Q98.67 4.25 97.65 3.44 96.62 2.64 95.92 1.46 95.21 0.29 94.77-1.07 94.33-2.44 93.84-3.71L93.84-3.71 93.84-3.86Q93.84-4.1 94.04-4.15 94.23-4.2 94.23-4.44L94.23-4.44Q94.23-4.54 94.18-4.59L94.18-4.59Q94.04-5.13 93.94-5.52 93.84-5.91 93.84-6.45L93.84-6.45Q93.84-7.23 93.94-7.98 94.04-8.74 94.04-9.52L94.04-9.52Q94.04-10.3 93.84-10.89L93.84-10.89Q94.04-11.13 94.16-11.55 94.28-11.96 94.33-12.4 94.38-12.84 94.4-13.28 94.43-13.72 94.52-14.06L94.52-14.06Q94.33-14.6 94.18-15.01 94.04-15.43 94.04-16.02L94.04-16.02 94.04-16.36Q94.52-17.19 94.87-18.07 95.21-18.95 95.6-19.87L95.6-19.87 95.6-20.02Q95.6-21.44 95.5-22.85 95.4-24.27 95.4-25.68L95.4-25.68 95.4-26.61Q95.4-27.1 95.45-27.54L95.45-27.54Q95.84-27.73 96.04-28.08 96.23-28.42 96.62-28.61L96.62-28.61 98.23-28.61 98.53-29.1Q98.67-29.35 98.72-29.64L98.72-29.64Q99.26-29.79 99.77-30.05 100.29-30.32 100.72-30.62L100.72-30.62Q101.41-31.01 101.97-31.32 102.53-31.64 103.09-31.86 103.65-32.08 104.29-32.23 104.92-32.37 105.75-32.47L105.75-32.47Q106.14-32.47 106.27-32.62 106.39-32.76 106.63-32.96L106.63-32.96Q107.22-32.86 107.81-32.79 108.39-32.71 108.98-32.71L108.98-32.71Q110.15-32.71 111.17-33.15L111.17-33.15Q112.64-33.15 114.08-33.2 115.52-33.25 116.98-33.25L116.98-33.25Q118.25-33.25 119.52-33.15 120.79-33.06 122.01-32.81L122.01-32.81Q122.45-32.96 122.99-32.96L122.99-32.96Q123.58-32.96 124.19-32.84 124.8-32.71 125.38-32.81L125.38-32.81Q125.43-32.28 125.65-31.91 125.87-31.54 125.87-31.05ZM156-37.16L156-37.16Q155.9-36.13 155.29-35.62 154.68-35.11 153.9-34.57L153.9-34.57Q152.87-33.06 151.72-31.64 150.58-30.22 149.38-28.83 148.18-27.44 147.04-26 145.89-24.56 144.96-23L144.96-23Q143.84-22.17 142.96-21.17 142.08-20.17 141.25-19.12 140.42-18.07 139.61-16.97 138.81-15.87 137.93-14.89L137.93-14.89Q138.22-13.72 138.95-13.04 139.69-12.35 140.57-11.79 141.45-11.23 142.28-10.6 143.11-9.96 143.54-8.94L143.54-8.94Q145.01-8.69 146.4-8.18 147.79-7.67 149.31-7.67L149.31-7.67Q150.43-7.67 151.45-8.25L151.45-8.25Q151.89-8.15 152.36-7.91 152.82-7.67 153.36-7.67L153.36-7.67Q153.8-7.67 154.24-8.11L154.24-8.11Q154.34-7.96 154.43-7.74 154.53-7.52 154.78-7.52L154.78-7.52Q154.87-7.52 154.95-7.54 155.02-7.57 155.07-7.57L155.07-7.57 155.07-6.79Q155.07-6.35 155.12-5.93 155.17-5.52 155.31-5.08L155.31-5.08Q154.92-5.08 154.68-4.93L154.68-4.93 154.24-4.64Q154.04-4.49 153.75-4.39 153.46-4.3 152.97-4.39L152.97-4.39Q152.68-4.35 152.6-4.1 152.53-3.86 152.28-3.71L152.28-3.71Q151.94-3.47 151.38-3.47 150.82-3.47 150.38-3.22L150.38-3.22 148.72-3.13Q147.89-3.08 147.06-3.08L147.06-3.08Q146.57-3.08 145.89-3.1 145.2-3.13 144.52-3.2 143.84-3.27 143.2-3.39 142.57-3.52 142.13-3.71L142.13-3.71Q140.52-4.49 139-5.66 137.49-6.84 136.07-7.96L136.07-7.96 135.29-8.64Q134.9-8.98 134.46-9.28L134.46-9.28Q134.41-9.33 134.22-9.33L134.22-9.33Q133.97-9.33 133.8-9.23 133.63-9.13 133.44-9.13L133.44-9.13Q133.24-9.13 133.24-9.28L133.24-9.28Q131.73-7.81 130.41-6.15L130.41-6.15 127.77-2.83Q127.77-2.44 127.97-2.2L127.97-2.2 128.36-1.76Q128.55-1.56 128.73-1.32 128.9-1.07 128.9-0.68L128.9-0.68Q128.9-0.39 128.85-0.2L128.85-0.2Q128.41-0.05 127.82 0 127.24 0.05 126.63 0.17 126.02 0.29 125.53 0.51 125.04 0.73 124.84 1.22L124.84 1.22Q124.5 1.12 124.23 1.03 123.96 0.93 123.57 0.98L123.57 0.98Q123.18 0.49 122.77-0.02 122.35-0.54 122.01-1.12L122.01-1.12Q121.96-1.46 121.94-1.78 121.91-2.1 121.91-2.44L121.91-2.44Q121.91-3.56 122.26-4.47 122.6-5.37 123.04-6.35L123.04-6.35Q123.87-6.74 124.57-7.2 125.28-7.67 125.53-8.59L125.53-8.59Q126.16-8.64 126.58-9.01 126.99-9.38 127.36-9.81 127.72-10.25 128.12-10.6 128.51-10.94 129.19-11.04L129.19-11.04Q129.19-11.13 129.16-11.23 129.14-11.33 129.14-11.43L129.14-11.43Q129.14-11.77 129.29-11.94 129.43-12.11 129.65-12.23 129.87-12.35 130.09-12.45 130.31-12.55 130.46-12.79L130.46-12.79Q130.26-13.33 130.04-13.82 129.82-14.31 129.53-14.75L129.53-14.75Q129.04-15.48 128.51-16.16L128.51-16.16 127.43-17.53Q127.19-17.87 126.82-18.14 126.45-18.41 126.21-18.8L126.21-18.8Q125.97-19.19 125.92-19.68 125.87-20.17 125.67-20.56L125.67-20.56Q125.43-21.04 125.06-21.46 124.7-21.88 124.7-22.51L124.7-22.51Q124.7-22.85 124.84-23.14L124.84-23.14Q124.31-23.68 124.06-24.44 123.82-25.2 123.82-25.93L123.82-25.93Q123.82-26.61 124.01-27.32 124.21-28.03 124.65-28.61L124.65-28.61 125.09-28.61Q125.33-28.61 125.33-28.76L125.33-28.76Q125.62-28.56 125.99-28.42 126.36-28.27 126.41-27.88L126.41-27.88Q126.85-27.83 127.28-27.73L127.28-27.73 128.16-27.54Q128.95-26.37 129.58-25.15 130.21-23.93 130.87-22.71 131.53-21.48 132.27-20.31 133-19.14 133.93-18.12L133.93-18.12Q134.66-18.41 135.2-18.99 135.73-19.58 136.2-20.21 136.66-20.85 137.2-21.44 137.73-22.02 138.47-22.31L138.47-22.31Q138.42-22.36 138.42-22.46L138.42-22.46Q138.42-22.71 138.59-22.83 138.76-22.95 138.66-23.34L138.66-23.34Q139.64-24.02 140.47-24.8 141.3-25.59 141.64-26.86L141.64-26.86 142.32-26.86Q143.5-28.42 144.69-29.98 145.89-31.54 147.4-32.81L147.4-32.81 147.4-33.5Q148.18-33.98 148.77-34.64 149.36-35.3 149.89-36.01 150.43-36.72 150.94-37.45 151.45-38.18 152.14-38.77L152.14-38.77Q152.63-38.53 153.16-38.43 153.7-38.33 154.21-38.18 154.73-38.04 155.19-37.82 155.65-37.6 156-37.16ZM190.47-3.56L190.47-3.56Q190.32-2.88 189.86-2.47 189.39-2.05 188.76-1.81 188.12-1.56 187.46-1.49 186.8-1.42 186.27-1.42L186.27-1.42Q186.02-1.42 185.8-1.44 185.58-1.46 185.34-1.46L185.34-1.46Q185.09-1.46 185.09-1.22 185.09-0.98 184.85-0.88L184.85-0.88Q184.61-0.98 184.36-1.03 184.12-1.07 183.87-1.07L183.87-1.07Q183.53-1.07 183.22-1.03 182.9-0.98 182.6-0.98L182.6-0.98Q182.21-0.98 182.04-1.07 181.87-1.17 181.75-1.29 181.63-1.42 181.51-1.56 181.38-1.71 181.14-1.81L181.14-1.81Q180.8-1.95 180.58-1.86 180.36-1.76 179.92-2.15L179.92-2.15Q179.33-2.64 178.92-3.34 178.5-4.05 178.11-4.83 177.72-5.62 177.28-6.4 176.84-7.18 176.26-7.76L176.26-7.76 175.87-7.76Q174.99-7.76 174.65-7.03L174.65-7.03Q174.4-7.18 174.16-7.4 173.91-7.62 173.62-7.76L173.62-7.76Q172.5-7.42 171.28-7.18 170.06-6.93 168.84-6.93L168.84-6.93 168.15-6.93Q167.86-6.93 167.52-7.03L167.52-7.03Q167.03-6.84 166.64-6.57 166.25-6.3 165.76-6.3L165.76-6.3Q165.47-6.3 165.08-6.49L165.08-6.49Q164.78-6.49 164.81-6.25 164.83-6.01 164.49-6.01L164.49-6.01 164.05-6.01Q163.37-6.01 162.71-5.96 162.05-5.91 161.36-5.91L161.36-5.91Q160.44-5.91 159.46-6.15L159.46-6.15Q159.22-6.01 158.92-6.01L158.92-6.01Q158.73-5.91 158.63-5.69 158.53-5.47 158.43-5.3 158.34-5.13 158.17-5 158-4.88 157.7-4.93L157.7-4.93Q157.6-4.35 157.21-4 156.82-3.66 156.82-2.98L156.82-2.98Q156.29-2.69 155.94-2.25 155.6-1.81 155.26-1.32 154.92-0.83 154.55-0.39 154.19 0.05 153.65 0.29L153.65 0.29Q153.41 0.59 153.5 1.22L153.5 1.22Q152.97 1.66 152.18 2 151.4 2.34 150.72 2.34L150.72 2.34Q149.3 2.34 148.77 0.83L148.77 0.83Q148.77 0.34 148.84-0.22 148.91-0.78 149.06-1.29 149.21-1.81 149.5-2.22 149.79-2.64 150.33-2.83L150.33-2.83Q150.33-3.27 150.04-3.44 149.74-3.61 149.79-4.05L149.79-4.05Q151.11-4.69 152.09-5.71 153.06-6.74 153.87-7.89 154.68-9.03 155.51-10.21 156.34-11.38 157.36-12.3L157.36-12.3 157.36-13.33Q158.83-14.89 159.26-16.85L159.26-16.85Q159.8-16.94 159.97-17.33 160.14-17.72 160.14-18.26L160.14-18.26Q160.39-18.26 160.46-18.48 160.53-18.7 160.88-18.6L160.88-18.6Q161.32-19.78 161.85-20.75 162.39-21.73 162.93-22.73 163.46-23.73 163.88-24.8 164.29-25.88 164.49-27.2L164.49-27.2Q165.17-27.25 165.25-27.86 165.32-28.47 165.42-28.96L165.42-28.96Q166.15-29.64 166.52-30.57 166.88-31.49 167.18-32.5 167.47-33.5 167.83-34.5 168.2-35.5 168.88-36.28L168.88-36.28 168.88-36.43Q168.88-36.67 168.69-36.74 168.49-36.82 168.49-37.06L168.49-37.06Q168.54-37.11 168.54-37.16L168.54-37.16Q169.13-37.4 169.42-37.96 169.71-38.53 170.3-38.77L170.3-38.77Q171.33-37.94 172.11-37.77 172.89-37.6 174.16-37.5L174.16-37.5Q174.79-36.82 174.87-35.86 174.94-34.91 175.18-33.98L175.18-33.98Q175.57-32.42 176.04-30.93 176.5-29.44 176.75-27.88L176.75-27.88Q176.89-26.95 177.28-26.12 177.67-25.29 177.82-24.41L177.82-24.41Q177.92-23.73 177.82-22.88 177.72-22.02 178.01-21.39L178.01-21.39 178.36-20.61Q178.6-20.07 178.77-19.48 178.94-18.9 179.09-18.31L179.09-18.31Q179.48-16.85 179.8-15.16 180.11-13.48 180.8-12.11L180.8-12.11Q181.04-11.62 181.55-11.43 182.07-11.23 182.7-11.16 183.34-11.08 183.95-11.11 184.56-11.13 185-11.13L185-11.13 185.49-11.13Q185.78-11.13 186.07-11.04L186.07-11.04Q186.27-10.64 186.27-10.35L186.27-10.35Q186.27-9.77 185.88-9.42 185.49-9.08 185.49-8.64L185.49-8.64Q185.49-8.4 185.68-8.11L185.68-8.11Q185.49-8.15 185.09-8.15L185.09-8.15Q183.97-8.15 182.9-7.76L182.9-7.76Q183.29-6.93 183.95-6.37 184.61-5.81 185.34-5.32L185.34-5.32Q185.83-5.71 186.36-5.71L186.36-5.71Q186.95-5.71 187.46-5.44 187.98-5.18 188.56-5.18L188.56-5.18Q189-5.18 189.2-5.32L189.2-5.32Q189.59-4.88 189.83-4.42 190.08-3.96 190.47-3.56ZM175.18-11.38L175.18-11.38Q175.09-12.21 174.87-12.57 174.65-12.94 174.5-13.48L174.5-13.48Q174.3-14.16 174.23-14.94 174.16-15.72 174.01-16.46L174.01-16.46Q173.67-18.12 173.25-19.78 172.84-21.44 172.2-23L172.2-23Q172.4-23.29 172.4-23.54L172.4-23.54 172.4-23.68Q171.96-24.17 171.76-24.88 171.57-25.59 171.4-26.29 171.23-27 170.96-27.61 170.69-28.22 170.1-28.61L170.1-28.61Q169.96-28.32 169.96-27.93L169.96-27.93Q169.96-27.59 170.03-27.29 170.1-27 170.1-26.66L170.1-26.66Q169.62-26.42 169.4-25.9 169.18-25.39 168.69-25.1L168.69-25.1Q168.3-23.54 167.57-22.14 166.83-20.75 166.03-19.38 165.22-18.02 164.49-16.63 163.76-15.23 163.32-13.72L163.32-13.72Q162.68-13.28 162.46-12.6 162.24-11.91 162.24-11.23L162.24-11.23Q162.68-10.99 163.24-10.96 163.81-10.94 164.34-10.94 164.88-10.94 165.37-10.84 165.86-10.74 166.25-10.35L166.25-10.35Q166.88-10.55 167.64-10.62 168.4-10.69 168.88-11.04L168.88-11.04Q169.86-10.69 170.98-10.69L170.98-10.69Q171.57-10.69 172.13-10.79 172.69-10.89 173.23-11.04L173.23-11.04Q173.67-10.94 173.91-10.72 174.16-10.5 174.65-10.55L174.65-10.55Q174.89-10.74 174.94-10.96 174.99-11.18 175.18-11.38ZM231.97-31.4L232.11-31.4Q231.92-30.76 231.48-30.22L231.48-30.22 230.65-29.2Q230.26-28.71 229.99-28.15 229.72-27.59 229.82-26.86L229.82-26.86Q229.72-26.86 229.57-26.88 229.43-26.9 229.33-26.9L229.33-26.9Q228.55-26.9 228.13-26.54 227.72-26.17 227.04-25.93L227.04-25.93Q226.94-26.22 226.79-26.49 226.65-26.76 226.35-26.86L226.35-26.86Q225.18-26.61 224.01-26.49 222.84-26.37 221.66-26.17L221.66-26.17Q221.13-26.07 220.59-25.9 220.05-25.73 219.47-25.59L219.47-25.59Q219.17-25.49 218.83-25.51 218.49-25.54 218.15-25.49L218.15-25.49Q216.98-25.44 215.61-25.32 214.24-25.2 213.17-24.56L213.17-24.56Q212.68-24.66 212.14-24.71 211.61-24.76 211.07-24.76L211.07-24.76Q209.9-24.76 208.51-24.54 207.11-24.32 206.04-23.68L206.04-23.68Q205.8-23.78 205.53-23.83 205.26-23.88 204.92-23.88L204.92-23.88Q204.82-23.88 204.77-23.85 204.72-23.83 204.62-23.83L204.62-23.83Q204.57-23.39 204.75-22.97 204.92-22.56 205.36-22.31L205.36-22.31Q205.16-21.78 205.16-21.14L205.16-21.14Q205.16-20.31 205.28-19.48 205.4-18.65 205.4-17.82L205.4-17.82Q205.4-16.89 205.16-16.36L205.16-16.36Q205.65-14.89 205.65-13.23L205.65-13.23Q205.65-12.65 205.58-12.08 205.5-11.52 205.5-10.89L205.5-10.89Q205.5-10.35 205.89-10.03 206.28-9.72 206.28-9.18L206.28-9.18Q206.28-8.98 206.19-8.79L206.19-8.79Q206.87-8.94 207.5-9.2 208.14-9.47 208.82-9.47L208.82-9.47Q209.21-9.47 209.58-9.33 209.95-9.18 210.24-8.94L210.24-8.94Q210.19-8.69 210.17-8.4 210.14-8.11 210.14-7.81L210.14-7.81Q210.14-7.28 210.17-6.81 210.19-6.35 210.24-5.81L210.24-5.81Q209.85-5.13 209.34-4.59 208.82-4.05 208.63-3.22L208.63-3.22Q207.9-3.22 207.33-2.91 206.77-2.59 206.28-2.22 205.8-1.86 205.31-1.54 204.82-1.22 204.23-1.22L204.23-1.22Q203.5-1.22 203.21-1.44 202.91-1.66 202.77-1.9 202.62-2.15 202.5-2.34 202.38-2.54 201.99-2.49L201.99-2.49Q201.89-3.13 201.6-3.69 201.3-4.25 200.99-4.79 200.67-5.32 200.35-5.88 200.03-6.45 199.89-7.03L199.89-7.03Q199.59-8.3 199.64-9.67 199.69-11.04 199.2-12.3L199.2-12.3Q199.3-12.99 199.35-13.7 199.4-14.4 199.4-15.09L199.4-15.09Q199.4-16.46 199.33-17.8 199.25-19.14 199.2-20.56L199.2-20.56Q198.86-21 198.79-21.56 198.72-22.12 198.67-22.66L198.67-22.66Q198.52-22.8 198.35-22.95 198.18-23.1 198.13-23.34L198.13-23.34Q197.74-23.44 197.54-23.44L197.54-23.44Q196.86-23.44 196.4-23.12 195.93-22.8 195.54-22.8L195.54-22.8Q195.15-22.8 194.81-22.9 194.47-23 194.13-23L194.13-23Q193.83-23 193.81-22.88 193.78-22.75 193.59-22.66L193.59-22.66Q193.44-22.56 192.9-22.46 192.37-22.36 191.71-22.29 191.05-22.22 190.44-22.17 189.83-22.12 189.63-22.12L189.63-22.12Q188.85-22.12 188.44-22.44 188.02-22.75 187.44-23.14L187.44-23.14Q187.53-23.44 187.53-23.54L187.53-23.54Q187.53-24.02 187.24-24.34 186.95-24.66 186.95-24.9L186.95-24.9Q186.95-25.44 187.36-25.73 187.78-26.03 187.83-26.66L187.83-26.66Q188.95-27.15 190.12-27.39 191.29-27.64 192.51-27.78 193.74-27.93 194.93-28.13 196.13-28.32 197.3-28.76L197.3-28.76Q197.64-28.71 197.96-28.69 198.28-28.66 198.62-28.66L198.62-28.66Q200.08-28.66 201.52-28.98 202.96-29.3 204.48-29.3L204.48-29.3Q204.87-29.3 205.26-29.25 205.65-29.2 206.04-29.1L206.04-29.1Q207.99-29.39 209.92-29.74 211.85-30.08 213.9-30.32L213.9-30.32Q214.88-30.42 215.83-30.49 216.78-30.57 217.76-30.71L217.76-30.71Q218.1-30.76 218.27-30.88 218.44-31.01 218.44-31.4L218.44-31.4Q218.88-31.2 219.42-31.2L219.42-31.2Q220.25-31.2 221.03-31.49 221.81-31.79 222.64-31.79L222.64-31.79Q222.84-31.79 222.98-31.76 223.13-31.74 223.28-31.74L223.28-31.74Q223.62-31.74 223.64-32.06 223.67-32.37 224.11-32.47L224.11-32.47Q224.45-32.57 225.08-32.62 225.72-32.67 226.43-32.74 227.13-32.81 227.74-32.93 228.35-33.06 228.65-33.3L228.65-33.3 228.99-33.84Q229.87-33.79 230.28-33.08 230.7-32.37 230.75-31.54L230.75-31.54Q230.94-31.35 231.31-31.37 231.67-31.4 231.97-31.4L231.97-31.4ZM256.18-28.27L256.18-28.27Q255.89-27.83 255.84-27.29 255.79-26.76 255.79-26.32L255.79-26.32Q255.79-25.73 255.82-25.17 255.84-24.61 255.84-24.07L255.84-24.07 255.84-23.34Q255.74-23 255.55-22.66 255.35-22.31 255.26-21.97L255.26-21.97Q254.57-20.17 254.57-18.36L254.57-18.36 254.57-18.26Q254.33-17.68 254.11-17.19 253.89-16.7 253.69-16.24 253.5-15.77 253.4-15.26 253.3-14.75 253.35-14.06L253.35-14.06Q252.67-12.35 251.55-10.96 250.42-9.57 249.35-8.11L249.35-8.11Q248.32-7.71 247.47-7.08 246.61-6.45 245.83-5.66L245.83-5.66Q244.32-5.18 242.85-4.54 241.39-3.91 240.22-2.83L240.22-2.83Q239.29-2.73 238.36-2.54 237.43-2.34 236.55-1.95L236.55-1.95 235.97-1.95Q235.53-1.95 235.33-2.15L235.33-2.15Q234.7-1.81 234.02-1.68 233.33-1.56 232.65-1.56L232.65-1.56Q231.77-1.56 230.92-1.68 230.06-1.81 229.18-1.95L229.18-1.95Q228.69-2.64 227.81-3 226.94-3.37 226.25-3.71L226.25-3.71Q224.84-5.66 224.2-7.5 223.57-9.33 222.88-11.62L222.88-11.62Q222.98-12.3 223.22-12.96 223.47-13.62 223.42-14.4L223.42-14.4Q224.3-16.94 225.74-19.02 227.18-21.09 229.04-23L229.04-23Q229.04-23.29 229.16-23.49 229.28-23.68 229.18-24.07L229.18-24.07Q229.23-24.02 229.38-24.02L229.38-24.02Q229.77-24.02 229.87-24.24 229.96-24.46 229.91-24.76L229.91-24.76Q231.67-25.88 233.11-27.34 234.55-28.81 236.41-29.79L236.41-29.79Q236.55-30.22 236.9-30.52 237.24-30.81 237.43-31.2L237.43-31.2Q239-31.64 240.27-32.52 241.54-33.4 242.95-34.08L242.95-34.08Q243.73-34.52 244.44-34.69 245.15-34.86 245.98-35.06L245.98-35.06Q246.27-35.16 246.52-35.21 246.76-35.25 247.05-35.25L247.05-35.25Q247.93-35.25 248.76-34.94 249.59-34.62 250.47-34.62L250.47-34.62Q250.71-34.62 250.89-34.64 251.06-34.67 251.25-34.72L251.25-34.72Q252.08-33.69 253.35-33.15L253.35-33.15Q253.64-32.42 254.06-31.88 254.47-31.35 254.91-30.83 255.35-30.32 255.72-29.71 256.09-29.1 256.18-28.27ZM251.3-25.73L251.3-25.73Q251.3-25.98 251.25-26.17L251.25-26.17Q250.76-26.32 250.32-26.56 249.88-26.81 249.35-26.81L249.35-26.81Q249.01-26.81 248.66-26.66L248.66-26.66Q248.62-27 248.4-27.15 248.18-27.29 247.91-27.42 247.64-27.54 247.37-27.61 247.1-27.69 246.91-27.88L246.91-27.88Q246.76-28.27 246.59-28.69 246.42-29.1 245.98-29.3L245.98-29.3Q245.54-28.86 244.95-28.59 244.37-28.32 243.76-28.08 243.15-27.83 242.59-27.49 242.02-27.15 241.63-26.66L241.63-26.66 240.75-26.66Q240.46-26.12 239.92-25.85 239.39-25.59 239-25.1L239-25.1Q238.21-24.71 237.56-24.15 236.9-23.58 236.26-22.97 235.63-22.36 235.02-21.73 234.41-21.09 233.72-20.56L233.72-20.56Q233.09-19.19 232.33-18.19 231.57-17.19 230.92-16.16 230.26-15.14 229.79-13.94 229.33-12.74 229.33-10.99L229.33-10.99 229.33-10.5Q229.33-10.25 229.38-10.01L229.38-10.01Q230.01-9.33 230.43-8.54 230.84-7.76 231.82-7.42L231.82-7.42Q232.8-7.03 233.89-7.08 234.99-7.13 236.02-6.84L236.02-6.84Q238.36-7.28 240.53-8.28 242.71-9.28 244.66-10.69L244.66-10.69Q244.95-10.94 245.34-11.21 245.73-11.47 245.98-11.77L245.98-11.77Q246.22-12.01 246.39-12.3 246.56-12.6 246.76-12.84L246.76-12.84Q247.15-13.48 247.64-14.11 248.13-14.75 248.66-15.28L248.66-15.28Q248.91-16.36 249.3-17.36 249.69-18.36 250.08-19.34 250.47-20.31 250.74-21.34 251.01-22.36 251.01-23.49L251.01-23.49Q251.01-23.73 250.98-24.02 250.96-24.32 250.91-24.56L250.91-24.56Q251.3-25.1 251.3-25.73ZM289.97-7.91L289.97-7.91Q289.77-7.18 289.34-6.69 288.9-6.2 288.33-5.81 287.77-5.42 287.14-5.1 286.5-4.79 285.92-4.39L285.92-4.39 285.28-4.39Q283.23-4.39 282.13-5.4 281.03-6.4 280.45-7.89 279.86-9.38 279.59-11.08 279.33-12.79 278.94-14.21L278.94-14.21Q278.35-13.72 277.96-13.06 277.57-12.4 277.15-11.77 276.74-11.13 276.23-10.6 275.71-10.06 274.88-9.86L274.88-9.86Q274.74-9.52 274.56-9.18 274.39-8.84 274.35-8.45L274.35-8.45Q273.27-7.86 272.39-7.08 271.51-6.3 270.63-5.47 269.76-4.64 268.85-3.88 267.95-3.13 266.83-2.64L266.83-2.64Q266.78-2.69 266.63-2.69L266.63-2.69Q266.04-2.69 265.56-2.42 265.07-2.15 264.48-2.15L264.48-2.15Q264.09-2.15 263.77-2.29 263.46-2.44 263.14-2.64 262.82-2.83 262.48-2.93 262.14-3.03 261.75-2.98L261.75-2.98Q261.26-3.86 260.45-4.61 259.65-5.37 259.45-6.35L259.45-6.35Q259.36-6.79 259.33-7.25 259.31-7.71 259.21-8.2L259.21-8.2Q259.06-8.94 258.82-9.69 258.57-10.45 258.43-11.23L258.43-11.23Q258.67-12.55 258.89-14.14 259.11-15.72 259.43-17.31 259.75-18.9 260.31-20.34 260.87-21.78 261.75-22.8L261.75-22.8 261.7-23.14Q261.7-23.93 261.99-24.61 262.28-25.29 262.63-25.93 262.97-26.56 263.21-27.2 263.46-27.83 263.31-28.61L263.31-28.61Q263.9-28.91 264.53-29.1 265.17-29.3 265.85-29.3L265.85-29.3Q266.48-29.3 267.02-29.1L267.02-29.1Q266.92-28.71 267.36-28.61L267.36-28.61 267.36-28.47Q267.36-27.44 267.12-26.46 266.87-25.49 266.53-24.54 266.19-23.58 265.87-22.63 265.56-21.68 265.41-20.7L265.41-20.7Q265.21-20.65 265.14-20.51 265.07-20.36 265.02-20.21 264.97-20.07 264.87-19.97 264.77-19.87 264.58-19.87L264.58-19.87Q264.29-18.16 263.97-16.48 263.65-14.79 263.65-13.09L263.65-13.09Q263.65-12.06 263.85-10.99 264.04-9.91 264.58-8.94L264.58-8.94 264.77-8.98Q265.31-8.98 265.63-8.74 265.95-8.5 266.48-8.25L266.48-8.25Q266.87-8.35 267.22-8.52 267.56-8.69 267.51-9.13L267.51-9.13Q268.14-9.18 268.58-9.45 269.02-9.72 269.36-10.06L269.36-10.06 270.1-10.74Q270.49-11.08 271.02-11.23L271.02-11.23Q271.02-11.52 271.17-11.67L271.17-11.67 271.46-11.96Q271.61-12.11 271.68-12.28 271.76-12.45 271.71-12.79L271.71-12.79Q272.29-12.84 272.61-13.09 272.93-13.33 273.2-13.65 273.47-13.96 273.71-14.31 273.95-14.65 274.35-14.89L274.35-14.89Q274.69-15.63 275.3-16.85 275.91-18.07 276.52-19.38 277.13-20.7 277.59-21.9 278.06-23.1 278.06-23.73L278.06-23.73Q278.06-23.97 277.93-24.17 277.81-24.37 277.86-24.61L277.86-24.61 277.86-24.76Q278.25-25.24 278.57-25.83 278.89-26.42 279.25-26.95 279.62-27.49 280.06-27.93 280.5-28.37 281.18-28.61L281.18-28.61Q281.96-28.37 282.77-28.27 283.57-28.17 284.31-27.88L284.31-27.88Q284.36-26.66 284.55-25.05 284.75-23.44 285.23-22.31L285.23-22.31Q285.23-21.68 285.21-21.09 285.19-20.51 285.19-19.92L285.19-19.92Q285.19-18.95 285.26-17.92 285.33-16.89 285.58-16.02L285.58-16.02Q285.23-15.28 285.23-14.45L285.23-14.45Q285.23-13.33 285.58-12.33 285.92-11.33 286.06-10.21L286.06-10.21Q286.7-9.33 287.72-9.33L287.72-9.33Q287.97-9.33 288.14-9.38 288.31-9.42 288.51-9.52L288.51-9.52Q288.9-9.08 289.21-8.67 289.53-8.25 289.97-7.91ZM354.03-8.5L354.03-8.5Q353.93-7.76 353.52-7.37 353.1-6.98 352.57-6.64L352.57-6.64Q352.32-6.69 352.1-6.71 351.88-6.74 351.64-6.74L351.64-6.74Q350.12-6.79 348.78-6.35 347.44-5.91 346.02-5.71L346.02-5.71Q345.53-5.62 345.12-5.64 344.7-5.66 344.26-5.57L344.26-5.57Q342.7-5.32 340.94-5.18 339.19-5.03 337.43-4.81 335.67-4.59 333.99-4.27 332.3-3.96 330.84-3.37L330.84-3.37Q330.69-3.47 330.54-3.59 330.4-3.71 330.2-3.71L330.2-3.71Q329.71-3.71 329.27-3.56 328.83-3.42 328.4-3.47L328.4-3.47Q327.91-3.17 327.35-3.05 326.78-2.93 326.22-2.86 325.66-2.78 325.12-2.64 324.59-2.49 324.1-2.1L324.1-2.1Q323.71-2.29 323.15-2.32 322.58-2.34 322.39-2.69L322.39-2.69Q321.27-2.15 320.02-2 318.78-1.86 317.51-1.9L317.51-1.9Q316.68-1.95 315.6-2.15 314.53-2.34 313.45-2.71 312.38-3.08 311.45-3.59 310.52-4.1 310.04-4.83L310.04-4.83Q309.69-5.32 309.55-5.91 309.4-6.49 308.86-6.79L308.86-6.79Q309.01-7.91 309.21-8.98 309.4-10.06 309.6-11.18L309.6-11.18Q310.57-12.01 311.45-12.94 312.33-13.87 313.11-14.89L313.11-14.89Q314.04-15.33 314.85-15.97 315.65-16.6 316.46-17.26 317.26-17.92 318.07-18.55 318.87-19.19 319.8-19.68L319.8-19.68Q319.95-20.02 320.22-20.24 320.49-20.46 320.78-20.68 321.07-20.9 321.32-21.17 321.56-21.44 321.66-21.83L321.66-21.83Q323.37-22.85 324.64-24.41 325.91-25.98 326.3-27.93L326.3-27.93Q325.47-28.61 324.42-28.83 323.37-29.05 322.24-29.15L322.24-29.15Q321.27-29.2 320.22-29.15 319.17-29.1 318.09-29.2L318.09-29.2Q317.02-28.86 315.87-28.76 314.72-28.66 313.6-28.59 312.48-28.52 311.38-28.3 310.28-28.08 309.25-27.49L309.25-27.49Q309.06-27.49 308.89-27.54 308.72-27.59 308.52-27.59L308.52-27.59Q306.96-27.64 305.59-26.98 304.23-26.32 302.91-25.68L302.91-25.68Q302.81-25.49 302.81-25.39L302.81-25.39Q302.81-25.1 302.93-24.83 303.05-24.56 303.05-24.27L303.05-24.27Q303-24.22 303-24.17 303-24.12 302.96-24.07L302.96-24.07Q302.91-23.83 302.83-23.63 302.76-23.44 302.66-23.19L302.66-23.19Q302.13-21.63 302.08-20.12L302.08-20.12Q302.03-18.85 302.08-17.63 302.13-16.41 302.08-15.14L302.08-15.14Q301.98-13.57 301.59-12.21L301.59-12.21Q301.83-11.04 302.03-9.74 302.22-8.45 302.52-7.18 302.81-5.91 303.22-4.71 303.64-3.52 304.32-2.44L304.32-2.44Q304.27-2.34 304.37-2.29 304.47-2.25 304.57-2.25L304.57-2.25 304.96-2.25Q305.2-2.25 305.15-2.05L305.15-2.05Q305.25-1.9 305.3-1.78 305.35-1.66 305.5-1.56L305.5-1.56Q305.59-1.42 305.5-1.17L305.5-1.17Q305.45-0.2 305.01 0.63 304.57 1.46 304.47 2.44L304.47 2.44Q303.88 2.59 303.4 2.59L303.4 2.59Q302.57 2.54 301.93 2.12 301.3 1.71 300.76 1.12 300.22 0.54 299.73-0.07 299.25-0.68 298.66-1.12L298.66-1.12Q298.32-2.49 298-4.15 297.68-5.81 296.95-6.98L296.95-6.98Q297.15-7.42 297.15-8.06L297.15-8.06Q297.19-9.03 296.97-9.99 296.75-10.94 296.85-11.91L296.85-11.91Q296.85-12.45 296.97-12.99 297.1-13.53 297.15-14.06L297.15-14.06Q297.19-14.89 296.97-15.67 296.75-16.46 296.8-17.29L296.8-17.29Q296.85-17.68 296.97-18.04 297.1-18.41 297.34-18.7L297.34-18.7Q297.1-19.29 297.19-19.82L297.19-19.82Q297.24-20.65 297.39-21.39 297.54-22.12 297.58-22.85L297.58-22.85Q297.58-23.24 297.54-23.61 297.49-23.97 297.39-24.32L297.39-24.32 296.95-24.46Q296.66-24.46 296.39-24.32 296.12-24.17 295.92-23.97 295.73-23.78 295.58-23.66 295.44-23.54 295.29-23.54L295.29-23.54Q295.19-23.54 295.07-23.56 294.95-23.58 294.85-23.58L294.85-23.58Q294.75-23.58 294.48-23.39 294.22-23.19 293.85-22.97 293.48-22.75 293.14-22.53 292.8-22.31 292.6-22.27L292.6-22.27Q292.07-22.36 291.75-22.63 291.43-22.9 291.16-23.17 290.9-23.44 290.6-23.66 290.31-23.88 289.87-23.83L289.87-23.83Q289.72-24.12 289.7-24.46 289.67-24.8 289.72-25.15L289.72-25.15 289.72-25.93Q290.07-26.56 290.63-26.98 291.19-27.39 291.82-27.69L291.82-27.69 293.09-28.27Q293.73-28.56 294.26-29L294.26-29 294.7-29Q295.58-28.96 296.24-29.35 296.9-29.74 297.49-30.25 298.07-30.76 298.68-31.3 299.29-31.84 300.03-32.13L300.03-32.13Q300.56-31.88 301.15-31.71 301.74-31.54 302.37-31.49L302.37-31.49Q303-31.49 303.69-31.69 304.37-31.88 304.76-32.42L304.76-32.42Q305.01-32.32 305.18-32.3 305.35-32.28 305.59-32.28L305.59-32.28Q306.33-32.23 307.06-32.5 307.79-32.76 308.47-33.15L308.47-33.15Q309.45-33.11 310.4-33.28 311.35-33.45 312.31-33.64 313.26-33.84 314.21-34.01 315.16-34.18 316.14-34.13L316.14-34.13Q317.75-34.08 319.31-34.42 320.88-34.77 322.49-34.67L322.49-34.67Q323.61-34.62 324.71-34.5 325.81-34.38 326.93-34.42L326.93-34.42Q327.57-34.13 328.08-33.91 328.59-33.69 329.37-33.79L329.37-33.79Q330.93-32.47 332.2-30.71L332.2-30.71 332.2-29.88Q332.16-28.76 331.81-27.69 331.47-26.61 331.01-25.56 330.54-24.51 330.01-23.51 329.47-22.51 328.98-21.53L328.98-21.53Q325.81-18.65 322.63-15.82 319.46-12.99 316.09-10.35L316.09-10.35Q315.99-9.86 315.82-9.47 315.65-9.08 315.6-8.64L315.6-8.64Q315.6-8.4 315.65-8.25L315.65-8.25Q315.99-8.15 316.26-7.89 316.53-7.62 316.43-7.18L316.43-7.18 316.87-7.18Q317.12-7.18 317.12-6.98L317.12-6.98 317.9-6.93Q319.75-6.84 321.61-7.03 323.46-7.23 325.34-7.47 327.22-7.71 329.08-7.93 330.93-8.15 332.79-8.2L332.79-8.2Q333.23-8.35 333.72-8.45 334.21-8.54 334.6-8.84L334.6-8.84 334.74-8.84Q335.08-8.84 335.26-8.64 335.43-8.45 335.77-8.4L335.77-8.4Q336.01-8.4 336.28-8.5 336.55-8.59 336.84-8.64L336.84-8.64Q337.53-8.84 338.28-8.89 339.04-8.94 339.77-9.03L339.77-9.03Q342.6-9.28 345.39-9.35 348.17-9.42 350.95-10.06L350.95-10.06Q351.2-9.72 351.64-9.59 352.08-9.47 352.57-9.35 353.05-9.23 353.47-9.08 353.88-8.94 354.03-8.5ZM365.99-6.15L365.99-6.15Q365.99-5.32 365.58-4.71 365.16-4.1 365.26-3.22L365.26-3.22Q364.57-2.83 364.14-2.2 363.7-1.56 363.31-0.88L363.31-0.88Q360.08 1.22 356.4 2.51 352.71 3.81 348.8 3.81L348.8 3.81Q348.56 3.81 348.36 3.59 348.17 3.37 347.97 3.13 347.78 2.88 347.56 2.66 347.34 2.44 347.05 2.44L347.05 2.44Q346.7 2.44 346.51 2.59L346.51 2.59Q346.51 2.49 346.53 2.42 346.56 2.34 346.56 2.25L346.56 2.25Q346.56 1.66 346.41 1.05 346.26 0.44 346.26-0.15L346.26-0.15Q346.26-0.83 346.51-1.27L346.51-1.27 347.09-1.27Q347.58-1.27 348.05-1.34 348.51-1.42 349.05-1.42L349.05-1.42Q349.58-1.42 350.02-1.12L350.02-1.12Q352.71-1.22 355.13-2.12 357.54-3.03 360.03-3.91L360.03-3.91Q360.42-4.44 360.5-5.1 360.57-5.76 360.86-6.35L360.86-6.35Q359.59-7.42 358.3-8.03 357.01-8.64 355.3-8.45L355.3-8.45Q354.27-9.08 353.12-9.18 351.98-9.28 350.81-9.47L350.81-9.47Q350.51-9.52 350.19-9.59 349.88-9.67 349.54-9.67L349.54-9.67Q349.29-9.67 349.07-9.55 348.85-9.42 348.95-9.18L348.95-9.18Q348.71-9.57 348.29-9.64 347.88-9.72 347.58-10.01L347.58-10.01Q346.02-10.11 344.85-10.57 343.68-11.04 342.26-11.62L342.26-11.62Q341.87-11.77 341.5-11.84 341.14-11.91 340.8-12.11L340.8-12.11Q339.92-12.55 339.38-13.28 338.84-14.01 338.52-14.92 338.21-15.82 338.06-16.8 337.91-17.77 337.77-18.6L337.77-18.6Q338.21-19.38 338.57-20.21 338.94-21.04 339.18-21.97L339.18-21.97Q339.48-22.12 339.77-22.22 340.06-22.31 340.4-22.46L340.4-22.46Q340.36-22.56 340.36-22.71L340.36-22.71Q340.36-22.95 340.53-23.19 340.7-23.44 340.6-23.68L340.6-23.68Q341.67-24.66 342.68-25.71 343.68-26.76 344.41-28.03L344.41-28.03Q345.14-28.27 345.58-28.76 346.02-29.25 346.46-29.76 346.9-30.27 347.44-30.69 347.97-31.1 348.8-31.2L348.8-31.2Q349-31.54 349.34-31.76 349.68-31.98 350.02-32.18 350.37-32.37 350.66-32.62 350.95-32.86 351.1-33.3L351.1-33.3Q351.88-33.3 352.54-33.59 353.2-33.89 353.83-34.23 354.47-34.57 355.13-34.86 355.79-35.16 356.57-35.16L356.57-35.16Q356.76-35.16 356.96-35.13 357.15-35.11 357.4-35.06L357.4-35.06Q357.74-34.72 357.86-34.25 357.98-33.79 358.03-33.25 358.08-32.71 358.1-32.18 358.13-31.64 358.28-31.2L358.28-31.2Q357.84-30.37 357.32-29.54 356.81-28.71 355.98-28.27L355.98-28.27 355.88-28.27Q355.54-28.22 355.25-28.42 354.96-28.61 354.56-28.61L354.56-28.61Q354.32-28.61 354.17-28.47L354.17-28.47 353.93-28.22Q353.83-28.13 353.66-28.03 353.49-27.93 353.2-28.03L353.2-28.03Q352.51-27.78 352.66-27.2L352.66-27.2Q351.73-27.1 351.1-26.64 350.46-26.17 349.93-25.61 349.39-25.05 348.85-24.58 348.31-24.12 347.58-24.07L347.58-24.07Q346.75-22.61 345.56-21.48 344.36-20.36 343.58-18.95L343.58-18.95Q343.73-18.55 343.77-18.12 343.82-17.68 343.92-17.19L343.92-17.19Q344.36-16.6 344.97-16.16 345.58-15.72 346.17-15.28L346.17-15.28 346.31-15.28Q347.29-15.28 348.12-14.92 348.95-14.55 349.88-14.55L349.88-14.55Q350.37-14.55 350.71-14.75L350.71-14.75Q351.98-14.45 353.22-14.26 354.47-14.06 355.74-13.96L355.74-13.96Q356.37-13.87 357.03-13.87 357.69-13.87 358.28-13.72L358.28-13.72Q358.81-13.57 359.35-13.35 359.89-13.13 360.42-12.89L360.42-12.89Q361.55-12.4 362.55-11.82 363.55-11.23 364.33-10.42 365.11-9.62 365.55-8.57 365.99-7.52 365.99-6.15Z" fill="#000000" data-fill-palette-color="primary"></path></g></svg></g></svg></g><g transform="matrix(1,0,0,1,166.1184,62.19221951138559)"><svg viewBox="0 0 150.2976 23.639090719499475" height="23.639090719499475" width="150.2976"><g transform="matrix(1,0,0,1,0,0)"><svg width="150.2976" viewBox="-0.699999988079071 -36.150001525878906 287.6800231933594 45.25" height="23.639090719499475" data-palette-color="#1f80d4"><path d="M-0.7 0L-0.45-1.55Q0-4.25 1.75-6.55 3.5-8.85 5.75-10.63 8-12.4 11.65-14.8L11.65-14.8Q15.2-17.15 17.23-18.75 19.25-20.35 20.63-22.35 22-24.35 22-26.65L22-26.65Q22-28.3 20.78-29.43 19.55-30.55 16.9-30.55L16.9-30.55Q10.5-30.55 9.3-24.55L9.3-24.55 8.9-22.5 3.75-22.5Q4-26.8 5.9-29.58 7.8-32.35 10.78-33.63 13.75-34.9 17.25-34.9L17.25-34.9Q22.25-34.9 24.8-32.68 27.35-30.45 27.35-26.55L27.35-26.55Q27.35-23.15 25.53-20.4 23.7-17.65 21.18-15.65 18.65-13.65 14.5-10.95L14.5-10.95Q12.25-9.5 10.8-8.5 9.35-7.5 8.25-6.5L8.25-6.5Q7.2-5.45 6.75-4.8L6.75-4.8 23.8-4.8 22.95 0-0.7 0ZM38.8 0.6Q33.4 0.6 30.67-1.25 27.95-3.1 27.95-6.05L27.95-6.05Q27.95-7.1 28.3-8.25L28.3-8.25 33.35-8.25Q33.2-7.6 33.2-7.1L33.2-7.1Q33.2-5.3 34.7-4.4 36.2-3.5 38.6-3.5L38.6-3.5Q41.25-3.5 43.12-4.5 45-5.5 45-7.35L45-7.35Q45-8.5 44.2-9.25 43.4-10 42.22-10.45 41.05-10.9 38.95-11.5L38.95-11.5Q36.4-12.2 34.72-12.9 33.05-13.6 31.9-14.9 30.75-16.2 30.75-18.25L30.75-18.25Q30.75-20.9 32.22-22.88 33.7-24.85 36.25-25.88 38.8-26.9 42-26.9L42-26.9Q46.65-26.9 49.27-25.2 51.9-23.5 51.9-20.8L51.9-20.8Q51.9-20.25 51.77-19.63 51.65-19 51.55-18.7L51.55-18.7 46.55-18.7Q46.65-19.3 46.65-19.65L46.65-19.65Q46.65-21.05 45.52-21.9 44.4-22.75 42-22.75L42-22.75Q38.95-22.75 37.55-21.7 36.15-20.65 36.15-19.35L36.15-19.35Q36.15-17.95 37.52-17.25 38.9-16.55 41.8-15.85L41.8-15.85Q44.6-15.05 46.3-14.38 48-13.7 49.25-12.33 50.5-10.95 50.5-8.7L50.5-8.7Q50.5-4 47.15-1.7 43.8 0.6 38.8 0.6L38.8 0.6ZM66.3 0.6Q60.4 0.6 57.52-1.93 54.65-4.45 54.65-9.65L54.65-9.65Q54.65-14.45 56.12-18.35 57.6-22.25 60.8-24.58 64-26.9 68.84-26.9L68.84-26.9Q74-26.9 76.65-24.55 79.3-22.2 79.3-17.6L79.3-17.6Q79.3-15.65 78.9-13.85L78.9-13.85 78.55-11.85 60.05-11.85Q59.85-10.85 59.85-9.8L59.85-9.8Q59.85-6.65 61.4-5.1 62.95-3.55 66.2-3.55L66.2-3.55Q68.9-3.55 70.75-4.9 72.59-6.25 73.05-9.05L73.05-9.05 78.09-9.05Q77.34-4.3 74.12-1.85 70.9 0.6 66.3 0.6L66.3 0.6ZM60.75-15.75L73.95-15.75Q74.15-16.6 74.15-17.65L74.15-17.65Q74.15-22.75 68.84-22.75L68.84-22.75Q62.55-22.75 60.75-15.75L60.75-15.75ZM90.79 0.6Q86.89 0.6 84.67-1.9 82.44-4.4 82.44-9.2L82.44-9.2Q82.44-14.1 83.97-18.15 85.49-22.2 88.29-24.55 91.09-26.9 94.79-26.9L94.79-26.9Q97.49-26.9 99.24-26.03 100.99-25.15 101.99-23.3L101.99-23.3 102.29-23.3 103.84-26.3 107.94-26.3 106.79-20 106.04-15.85Q104.09-5.3 104.09-5L104.09-5Q104.09-3.65 105.59-3.65L105.59-3.65 107.44-3.65 106.84-0.2Q105.34 0.6 103.29 0.6L103.29 0.6Q101.14 0.6 100.24-0.58 99.34-1.75 99.34-3.95L99.34-3.95 99.09-3.95Q97.74-1.75 95.52-0.58 93.29 0.6 90.79 0.6L90.79 0.6ZM92.34-3.75Q95.24-3.75 97.17-5.85 99.09-7.95 99.94-10.98 100.79-14 100.79-16.75L100.79-16.75Q100.79-19.65 99.59-21.13 98.39-22.6 95.79-22.6L95.79-22.6Q93.09-22.6 91.29-20.73 89.49-18.85 88.64-15.85 87.79-12.85 87.79-9.5L87.79-9.5Q87.79-3.75 92.34-3.75L92.34-3.75ZM120.79 0.6Q115.39 0.6 112.67-1.25 109.94-3.1 109.94-6.05L109.94-6.05Q109.94-7.1 110.29-8.25L110.29-8.25 115.34-8.25Q115.19-7.6 115.19-7.1L115.19-7.1Q115.19-5.3 116.69-4.4 118.19-3.5 120.59-3.5L120.59-3.5Q123.24-3.5 125.12-4.5 126.99-5.5 126.99-7.35L126.99-7.35Q126.99-8.5 126.19-9.25 125.39-10 124.22-10.45 123.04-10.9 120.94-11.5L120.94-11.5Q118.39-12.2 116.72-12.9 115.04-13.6 113.89-14.9 112.74-16.2 112.74-18.25L112.74-18.25Q112.74-20.9 114.22-22.88 115.69-24.85 118.24-25.88 120.79-26.9 123.99-26.9L123.99-26.9Q128.64-26.9 131.27-25.2 133.89-23.5 133.89-20.8L133.89-20.8Q133.89-20.25 133.77-19.63 133.64-19 133.54-18.7L133.54-18.7 128.54-18.7Q128.64-19.3 128.64-19.65L128.64-19.65Q128.64-21.05 127.52-21.9 126.39-22.75 123.99-22.75L123.99-22.75Q120.94-22.75 119.54-21.7 118.14-20.65 118.14-19.35L118.14-19.35Q118.14-17.95 119.52-17.25 120.89-16.55 123.79-15.85L123.79-15.85Q126.59-15.05 128.29-14.38 129.99-13.7 131.24-12.33 132.49-10.95 132.49-8.7L132.49-8.7Q132.49-4 129.14-1.7 125.79 0.6 120.79 0.6L120.79 0.6ZM137.24 0L137.99-4.25 146.59-4.25 150.69-27.4 141.99-27.4 142.54-30.55Q144.94-30.8 148.46-31.85 151.99-32.9 154.74-34.3L154.74-34.3 157.04-34.3 151.74-4.25 159.69-4.25 158.94 0 137.24 0ZM173.34 9.1Q168.74 9.1 166.04 7.23 163.34 5.35 163.29 1.75L163.29 1.75 163.29 1.25 168.29 1.25Q168.49 4.9 173.34 4.9L173.34 4.9Q179.74 4.9 181.24-2.95L181.24-2.95 181.49-4.15 181.19-4.15Q177.99-0.55 173.19-0.55L173.19-0.55Q169.19-0.55 166.84-2.88 164.49-5.2 164.49-9.85L164.49-9.85Q164.49-14.6 166.01-18.5 167.54-22.4 170.39-24.65 173.24-26.9 177.09-26.9L177.09-26.9Q179.84-26.9 181.89-25.85 183.94-24.8 184.99-22.8L184.99-22.8 185.29-22.8 186.39-26.3 190.49-26.3 186.39-3.15Q185.29 3.05 182.11 6.08 178.94 9.1 173.34 9.1L173.34 9.1ZM175.09-4.9Q177.84-4.9 179.71-6.65 181.59-8.4 182.51-11.15 183.44-13.9 183.44-16.9L183.44-16.9Q183.44-22.55 178.29-22.55L178.29-22.55Q174.04-22.55 171.94-18.95 169.84-15.35 169.84-10.1L169.84-10.1Q169.84-7.35 171.09-6.13 172.34-4.9 175.09-4.9L175.09-4.9ZM201.58 0.6Q193.83 0.6 193.83-5.85L193.83-5.85Q193.83-7.3 194.23-9.4L194.23-9.4 197.18-26.3 202.33-26.3 199.43-9.75Q199.18-8.15 199.18-7.15L199.18-7.15Q199.18-5.35 200.16-4.58 201.13-3.8 202.88-3.8L202.88-3.8Q205.88-3.8 208.33-5.93 210.78-8.05 211.43-11.65L211.43-11.65 214.03-26.3 219.18-26.3 214.53 0 210.53 0 210.53-3.55 210.18-3.55Q208.68-1.7 206.36-0.55 204.03 0.6 201.58 0.6L201.58 0.6ZM226.78-30.9L227.68-36.15 232.83-36.15 231.93-30.9 226.78-30.9ZM221.38 0L226.03-26.3 231.18-26.3 226.53 0 221.38 0ZM242.78 0.6Q238.43 0.6 236.05-1.95 233.68-4.5 233.68-9.8L233.68-9.8Q233.68-14.5 235.23-18.43 236.78-22.35 239.63-24.63 242.48-26.9 246.18-26.9L246.18-26.9Q248.98-26.9 250.85-26 252.73-25.1 253.83-23.3L253.83-23.3 254.13-23.3 256.38-36.15 261.53-36.15 255.18 0 251.18 0 251.18-3.5 250.83-3.5Q249.28-1.5 247.2-0.45 245.13 0.6 242.78 0.6L242.78 0.6ZM244.28-3.75Q247.03-3.75 248.93-5.63 250.83-7.5 251.73-10.48 252.63-13.45 252.63-16.75L252.63-16.75Q252.63-19.65 251.33-21.13 250.03-22.6 247.28-22.6L247.28-22.6Q243.18-22.6 241.1-18.85 239.03-15.1 239.03-9.8L239.03-9.8Q239.03-6.6 240.3-5.18 241.58-3.75 244.28-3.75L244.28-3.75ZM273.98 0.6Q268.08 0.6 265.2-1.93 262.33-4.45 262.33-9.65L262.33-9.65Q262.33-14.45 263.8-18.35 265.28-22.25 268.48-24.58 271.68-26.9 276.53-26.9L276.53-26.9Q281.68-26.9 284.33-24.55 286.98-22.2 286.98-17.6L286.98-17.6Q286.98-15.65 286.58-13.85L286.58-13.85 286.23-11.85 267.73-11.85Q267.53-10.85 267.53-9.8L267.53-9.8Q267.53-6.65 269.08-5.1 270.63-3.55 273.88-3.55L273.88-3.55Q276.58-3.55 278.43-4.9 280.28-6.25 280.73-9.05L280.73-9.05 285.78-9.05Q285.03-4.3 281.8-1.85 278.58 0.6 273.98 0.6L273.98 0.6ZM268.43-15.75L281.63-15.75Q281.83-16.6 281.83-17.65L281.83-17.65Q281.83-22.75 276.53-22.75L276.53-22.75Q270.23-22.75 268.43-15.75L268.43-15.75Z" opacity="1" transform="matrix(1,0,0,1,0,0)" fill="#000000" class="undefined-text-1" data-fill-palette-color="secondary" id="text-1"></path></svg></g></svg></g></svg></g></svg></g></svg></g></svg></g></svg></g></svg><rect width="395.52" height="247.2" fill="none" stroke="none" visibility="hidden"></rect></g></svg></g></svg>